<svg xmlns="http://www.w3.org/2000/svg" width="35" height="36" viewBox="0 0 35 36">
    <path fill="#134CED" fill-rule="evenodd" d="M26.832 19.218c1.932 1.639 3.373 4.142 3.127 7.542-.313 4.45-4.291 9.24-12.285 9.24-4.99 0-9.416-2.174-11.84-5.816l-.542-.814-.25-.395 3.438-1.537.213.276.385.55c1.766 2.52 5.014 4.025 8.689 4.025 3.475 0 7.738-1.514 8.324-5.78.182-2.613-1.01-4.39-3.232-5.511zm7.973-9.047l.01 2.181-30.813 13.82.006-2.189 30.797-13.812zM17.72 0c3.233 0 5.863.743 8.246 2.349 1.47.991 2.771 2.848 2.771 2.848L25.26 6.754s-.585-.689-1.115-1.1c-1.396-1.083-3.541-1.942-6.425-1.942-1.8 0-7.698.401-8.04 5.572-.129 1.67.335 3.914 4.92 5.549l16.204-7.257.009 2.2L0 23.577l.006-2.208L10.03 16.88C7.624 15.37 5.72 12.994 5.894 9.141c.1-2.917 1.448-5.326 3.899-6.966C11.888.772 14.703 0 17.72 0z"/>
</svg>
